<?xml version="1.0" encoding="UTF-8"?>
<svg version="1.1" xmlns="http://www.w3.org/2000/svg" width="192" height="192">
<path d="M0 0 C1.15371094 0.38542969 2.30742187 0.77085937 3.49609375 1.16796875 C19.53425904 6.8972093 34.52281906 17.50558101 45 31 C45.57878906 31.7321875 46.15757812 32.464375 46.75390625 33.21875 C55.78512711 45.34119411 60.94881254 58.31292814 64 73 C64.1743457 73.60585937 64.34869141 74.21171875 64.52832031 74.8359375 C67.69710974 89.37431713 65.91927643 107.04335579 61 121 C60.42185547 122.73056641 60.42185547 122.73056641 59.83203125 124.49609375 C54.1027907 140.53425904 43.49441899 155.52281906 30 166 C29.2678125 166.57878906 28.535625 167.15757812 27.78125 167.75390625 C10.46925646 180.65134144 -8.42853674 186.37084185 -29.875 186.3125 C-31.64037109 186.33666992 -31.64037109 186.33666992 -33.44140625 186.36132812 C-58.61936125 186.37517739 -81.58771908 175.01390209 -99.41796875 157.64453125 C-101.38473697 155.49516172 -103.21359421 153.30085825 -105 151 C-105.57878906 150.2678125 -106.15757813 149.535625 -106.75390625 148.78125 C-115.78512711 136.65880589 -120.94881254 123.68707186 -124 109 C-124.1743457 108.39414063 -124.34869141 107.78828125 -124.52832031 107.1640625 C-127.69710974 92.62568287 -125.91927643 74.95664421 -121 61 C-120.42185547 59.26943359 -120.42185547 59.26943359 -119.83203125 57.50390625 C-114.1027907 41.46574096 -103.49441899 26.47718094 -90 16 C-89.2678125 15.42121094 -88.535625 14.84242187 -87.78125 14.24609375 C-75.65880589 5.21487289 -62.68707186 0.05118746 -48 -3 C-47.39414063 -3.1743457 -46.78828125 -3.34869141 -46.1640625 -3.52832031 C-31.62568287 -6.69710974 -13.95664421 -4.91927643 0 0 Z " fill="#000000" transform="translate(126,5)"/>
<path d="M0 0 C6.27 -0.0825 12.54 -0.165 19 -0.25 C20.96324219 -0.28641602 22.92648438 -0.32283203 24.94921875 -0.36035156 C26.52863476 -0.3720486 28.10806295 -0.38223801 29.6875 -0.390625 C30.88922852 -0.4213208 30.88922852 -0.4213208 32.11523438 -0.45263672 C38.45573702 -0.45651233 43.9082666 1.00002983 48.56494141 5.51849365 C52.79657389 10.47139291 53.23272045 13.92082207 53.3125 20.25 C53.34150391 21.00152344 53.37050781 21.75304687 53.40039062 22.52734375 C53.47365207 28.98562231 51.40377852 32.52552211 46.875 37.1875 C37.50451425 43.09498015 27.68885416 42.25449653 17 42 C17 49.59 17 57.18 17 65 C11.39 65 5.78 65 0 65 C0 43.55 0 22.1 0 0 Z " fill="#F9F9F9" transform="translate(53,64)"/>
<path d="M0 0 C4.81721665 2.36316288 7.60160527 5.20321055 10 10 C10.71529166 15.00704159 10.55620022 17.69365211 7.6875 21.875 C5.87683373 24.21309759 4.54349641 25.30433573 2 27 C-3.40138366 27.66170797 -8.35348354 27.95497955 -13.125 25.1875 C-17.2731736 20.34796413 -17.48068126 17.16340828 -17.390625 10.95703125 C-16.8017672 6.49937774 -15.33194012 4.94450522 -12 2 C-7.94929623 -0.70046918 -4.75617141 -0.65153033 0 0 Z " fill="#F8F8F8" transform="translate(129,86)"/>
<path d="M0 0 C2.75105422 -0.10812003 5.49785087 -0.18734945 8.25 -0.25 C9.02730469 -0.28351563 9.80460937 -0.31703125 10.60546875 -0.3515625 C16.36986123 -0.45009912 16.36986123 -0.45009912 19.515625 1.796875 C21.68942352 5.02324965 21.54267635 7.20126556 21 11 C19.515625 13.203125 19.515625 13.203125 17 15 C14.06626418 15.48299309 11.2128856 15.37775294 8.25 15.25 C7.06083984 15.22292969 7.06083984 15.22292969 5.84765625 15.1953125 C3.89791652 15.14833082 1.94880122 15.07659044 0 15 C0 10.05 0 5.1 0 0 Z " fill="#0F0F0F" transform="translate(69,77)"/>
</svg>
